<?xml version="1.0" encoding="UTF-8"?>
<svg width="300px" height="300px" viewBox="0 0 300 300" version="1.1" xmlns="http://www.w3.org/2000/svg" xmlns:xlink="http://www.w3.org/1999/xlink">
    <!-- Generator: Sketch 40.3 (33839) - http://www.bohemiancoding.com/sketch -->
    <title>01n</title>
    <desc>Created with Sketch.</desc>
    <defs></defs>
    <g id="Page-1" stroke="none" stroke-width="1" fill="none" fill-rule="evenodd">
        <g id="01n" stroke="#FFFFFF" stroke-width="4">
            <g id="Group-5" transform="translate(48.000000, 40.000000)">
                <path d="M169.371304,190.09913 C107.809565,190.09913 57.9030435,140.436522 57.9030435,79.1808696 C57.9030435,48.156087 70.7156522,20.1252174 91.3430435,0 C39.3943478,9.43130435 0,54.6652174 0,109.081739 C0,170.337391 49.9065217,220 111.473043,220 C141.856957,220 169.390435,207.885652 189.496522,188.257826 C182.968261,189.443913 176.248696,190.09913 169.371304,190.09913 L169.371304,190.09913 Z" id="Stroke-523"></path>
                <polygon id="Stroke-525" points="183.422609 0 194.288696 21.9043478 218.584348 25.4147826 201.003478 42.4695652 205.15 66.5452174 183.422609 55.1769565 161.695217 66.5452174 165.841739 42.4695652 148.26087 25.4147826 172.556522 21.9043478"></polygon>
                <polygon id="Stroke-527" points="141.531739 86.0869565 149.80087 102.754348 168.285652 105.427826 154.908696 118.403043 158.07 136.720435 141.531739 128.068696 124.998261 136.720435 128.154783 118.403043 114.782609 105.427826 133.262609 102.754348"></polygon>
            </g>
        </g>
    </g>
</svg>