<?xml version="1.0" encoding="UTF-8"?>
<svg width="300px" height="300px" viewBox="0 0 300 300" version="1.1" xmlns="http://www.w3.org/2000/svg" xmlns:xlink="http://www.w3.org/1999/xlink">
    <!-- Generator: Sketch 40.3 (33839) - http://www.bohemiancoding.com/sketch -->
    <title>02d</title>
    <desc>Created with Sketch.</desc>
    <defs></defs>
    <g id="Page-1" stroke="none" stroke-width="1" fill="none" fill-rule="evenodd">
        <g id="02d" stroke-width="4" stroke="#FFFFFF">
            <g id="Group-6" transform="translate(29.000000, 28.000000)">
                <g id="Group-2">
                    <path d="M129.055313,86.1211532 C129.055313,109.622515 109.869487,128.668366 86.201487,128.668366 C62.533487,128.668366 43.3476609,109.622515 43.3476609,86.1211532 C43.3476609,62.6250894 62.533487,43.5792383 86.201487,43.5792383 C109.869487,43.5792383 129.055313,62.6250894 129.055313,86.1211532 L129.055313,86.1211532 Z" id="Stroke-343"></path>
                    <path d="M86,0.542502128 L86,31.0370553" id="Stroke-345"></path>
                    <path d="M86,141.210549 L86,160.394145" id="Stroke-347"></path>
                    <path d="M172.401913,86 L141.689739,86" id="Stroke-349"></path>
                    <path d="M30.7174783,86 L0,86" id="Stroke-351"></path>
                    <path d="M147.154278,25.6093851 L125.432974,47.1664277" id="Stroke-353"></path>
                    <path d="M46.9673478,125.079057 L25.2460435,146.6361" id="Stroke-355"></path>
                    <path d="M46.9673478,47.168017 L25.2460435,25.6109745" id="Stroke-357"></path>
                    <path d="M119.151035,7.04087234 L107.412513,35.2149574" id="Stroke-359"></path>
                    <path d="M64.9936435,137.029998 L53.2498174,165.204083" id="Stroke-361"></path>
                    <path d="M165.85953,118.834455 L137.475965,107.179136" id="Stroke-363"></path>
                    <path d="M34.9291304,65.0689979 L6.54556522,53.4136787" id="Stroke-365"></path>
                    <path d="M165.828235,53.3352702 L137.455278,65.0170787" id="Stroke-367"></path>
                    <path d="M34.9498174,107.229466 L6.57686087,118.911274" id="Stroke-369"></path>
                    <path d="M64.9421913,35.2377383 L53.1718435,7.07424894" id="Stroke-371"></path>
                    <path d="M199.834939,160.394674 L198.492939,160.394674 C193.952417,139.727674 174.660504,124.199611 151.538852,124.199611 C128.4172,124.199611 109.119983,139.727674 104.579461,160.394674 L83.5424174,160.394674 C59.1530261,160.394674 39.3784174,179.165036 39.3784174,202.316738 C39.3784174,225.473738 59.1530261,244.2441 83.5424174,244.2441 L199.834939,244.2441 C224.229635,244.2441 243.998939,225.473738 243.998939,202.316738 C243.998939,179.165036 224.229635,160.394674 199.834939,160.394674 L199.834939,160.394674 Z" id="Stroke-373"></path>
                </g>
            </g>
        </g>
    </g>
</svg>