<?xml version="1.0" encoding="UTF-8"?>
<svg width="300px" height="300px" viewBox="0 0 300 300" version="1.1" xmlns="http://www.w3.org/2000/svg" xmlns:xlink="http://www.w3.org/1999/xlink">
    <!-- Generator: Sketch 40.3 (33839) - http://www.bohemiancoding.com/sketch -->
    <title>02n</title>
    <desc>Created with Sketch.</desc>
    <defs></defs>
    <g id="Page-1" stroke="none" stroke-width="1" fill="none" fill-rule="evenodd">
        <g id="02n" stroke="#FFFFFF" stroke-width="4">
            <g id="Group-7" transform="translate(27.000000, 37.000000)">
                <path d="M190.784433,151.56713 L189.417519,151.56713 C184.770011,130.314413 165.055497,114.347826 141.425935,114.347826 C117.796372,114.347826 98.0767004,130.314413 93.429192,151.56713 L71.9299525,151.56713 C47.0005321,151.56713 26.7908343,170.867174 26.7908343,194.67537 C26.7908343,218.483565 47.0005321,237.783609 71.9299525,237.783609 L190.784433,237.783609 C215.713854,237.783609 235.923552,218.483565 235.923552,194.67537 C235.923552,170.867174 215.713854,151.56713 190.784433,151.56713 L190.784433,151.56713 Z" id="Stroke-337"></path>
                <path d="M73.2823986,150.783522 L94.7816381,150.783522 C97.1698693,139.860913 103.560838,130.355152 112.396778,123.672783 C83.3614566,112.425587 60.4953029,87.2314565 53.9392729,54.6181957 C50.1067549,35.55 52.3815065,16.677587 59.4172461,0 C17.9146355,16.4663478 -7.22111163,60.404087 1.84694571,105.51137 C6.8297349,130.30363 21.2622858,150.80413 40.6363605,164.174022 C48.8584785,155.940848 60.4282468,150.783522 73.2823986,150.783522 L73.2823986,150.783522 Z" id="Stroke-339"></path>
            </g>
        </g>
    </g>
</svg>