<?xml version="1.0" encoding="UTF-8"?>
<svg width="300px" height="300px" viewBox="0 0 300 300" version="1.1" xmlns="http://www.w3.org/2000/svg" xmlns:xlink="http://www.w3.org/1999/xlink">
    <!-- Generator: Sketch 40.3 (33839) - http://www.bohemiancoding.com/sketch -->
    <title>04d</title>
    <desc>Created with Sketch.</desc>
    <defs></defs>
    <g id="Page-1" stroke="none" stroke-width="1" fill="none" fill-rule="evenodd">
        <g id="04d" stroke="#FFFFFF" stroke-width="4">
            <path d="M233.300245,164.111171 C238.907651,157.308474 242.658774,148.919398 243.77695,139.7151 C244.008297,137.809243 244.129479,135.864829 244.129479,133.898381 C244.129479,107.662552 222.900656,86.400679 196.708893,86.400679 L195.276746,86.400679 C190.39643,62.9850777 169.679875,45.3972124 144.859668,45.3972124 C120.033952,45.3972124 99.3173972,62.9850777 94.4425895,86.400679 L71.8532268,86.400679 C45.6614638,86.400679 24.4326406,107.662552 24.4326406,133.898381 C24.4326406,160.128701 45.6614638,181.396083 71.8532268,181.396083 L94.5968207,181.396083" id="Stroke-151"></path>
            <path d="M232.859585,170.02704 L231.581669,170.02704 C227.235654,149.183794 208.799517,133.529328 186.705898,133.529328 C164.60677,133.529328 146.170633,149.183794 141.830126,170.02704 L121.719479,170.02704 C98.4085347,170.02704 79.5152125,188.953411 79.5152125,212.302914 L79.5152125,212.302914 C79.5152125,235.652416 98.4085347,254.578788 121.719479,254.578788 L232.859585,254.578788 C256.170529,254.578788 275.069359,235.652416 275.069359,212.302914 L275.069359,212.302914 C275.069359,188.953411 256.170529,170.02704 232.859585,170.02704 L232.859585,170.02704 Z" id="Stroke-153"></path>
        </g>
    </g>
</svg>