<?xml version="1.0" encoding="UTF-8"?>
<svg width="300px" height="300px" viewBox="0 0 300 300" version="1.1" xmlns="http://www.w3.org/2000/svg" xmlns:xlink="http://www.w3.org/1999/xlink">
    <!-- Generator: Sketch 40.3 (33839) - http://www.bohemiancoding.com/sketch -->
    <title>09d</title>
    <desc>Created with Sketch.</desc>
    <defs></defs>
    <g id="Page-1" stroke="none" stroke-width="1" fill="none" fill-rule="evenodd">
        <g id="09d" stroke="#FFFFFF" stroke-width="4">
            <path d="M162.966387,55.074609 C154.904388,48.4315218 143.368819,44.2623165 130.566365,44.2623165 C107.882203,44.2623165 89.2106129,57.322755 86.7459446,74.1147473 C83.9035141,73.2809062 80.9136642,72.8017931 77.8224634,72.8017931 C59.2844725,72.8017931 44.2569062,88.7691581 44.2569062,108.468077 C44.2569062,126.697408 57.1422842,141.706547 73.7453953,143.848736 L73.7453953,144.138968 L86.4511058,144.138968" id="Stroke-23"></path>
            <path d="M81.111759,125.835926 C81.111759,110.642513 96.563156,98.3237787 115.626329,98.3237787 C120.297681,98.3237787 124.752512,99.0700895 128.815759,100.406078 C126.507724,96.3290098 125.217804,91.8419315 125.217804,87.1106897 C125.217804,68.5358439 144.967398,53.4760297 169.323849,53.4760297 C192.008011,53.4760297 210.670387,66.541075 213.135055,83.3330673 C215.9867,82.4946194 218.967336,82.0201132 222.072357,82.0201132 C240.596528,82.0201132 255.624094,97.9828713 255.624094,117.68179 C255.624094,135.915729 242.74793,150.924867 226.135605,153.067056 L226.135605,153.352681 L115.382165,153.352681 L115.382165,153.343467 C96.4341641,153.237509 81.111759,140.96945 81.111759,125.835926 L81.111759,125.835926 Z" id="Stroke-25"></path>
            <path d="M103.436586,182.468014 L99.5391854,200.338011" id="Stroke-27"></path>
            <path d="M85.0091597,237.750294 L81.111759,255.615683" id="Stroke-29"></path>
            <path d="M163.325722,182.468014 L159.428321,200.338011" id="Stroke-31"></path>
            <path d="M144.898295,237.750294 L141.000895,255.615683" id="Stroke-33"></path>
            <path d="M223.214858,182.468014 L219.317457,200.338011" id="Stroke-35"></path>
            <path d="M204.787431,237.750294 L200.890031,255.615683" id="Stroke-37"></path>
        </g>
    </g>
</svg>