<?xml version="1.0" encoding="UTF-8"?>
<svg width="300px" height="300px" viewBox="0 0 300 300" version="1.1" xmlns="http://www.w3.org/2000/svg" xmlns:xlink="http://www.w3.org/1999/xlink">
    <!-- Generator: Sketch 40.3 (33839) - http://www.bohemiancoding.com/sketch -->
    <title>10d</title>
    <desc>Created with Sketch.</desc>
    <defs></defs>
    <g id="Page-1" stroke="none" stroke-width="1" fill="none" fill-rule="evenodd">
        <g id="10d" stroke="#FFFFFF" stroke-width="4">
            <path d="M94.8911819,147.459567 C85.4957599,140.493831 79.4144113,129.367674 79.4144113,116.824595 C79.4144113,95.7371982 96.612408,78.6390517 117.828184,78.6390517 C134.778932,78.6390517 149.162106,89.54649 154.259218,104.690427" id="Stroke-375"></path>
            <path d="M117,40.600906 L117,67.9693518" id="Stroke-377"></path>
            <path d="M68.9111284,116 L41.3762656,116" id="Stroke-379"></path>
            <path d="M170.20671,59.6199788 L150.735935,78.9671307" id="Stroke-381"></path>
            <path d="M79.8661143,149.960575 L60.3953385,169.307727" id="Stroke-383"></path>
            <path d="M79.8661143,78.9671307 L60.3953385,59.6199788" id="Stroke-385"></path>
            <path d="M222.713616,122.045331 L221.634283,122.045331 C217.982621,105.403642 202.467813,92.9033564 183.876669,92.9033564 C165.280771,92.9033564 149.765962,105.403642 146.1143,122.045331 L129.196835,122.045331 C109.578661,122.045331 93.678716,137.160739 93.678716,155.804185 C93.678716,174.447631 109.578661,189.558285 129.196835,189.558285 L222.713616,189.558285 C242.327035,189.558285 258.231734,174.447631 258.231734,155.804185 C258.231734,137.160739 242.327035,122.045331 222.713616,122.045331 L222.713616,122.045331 Z" id="Stroke-387"></path>
            <path d="M138.582747,211.772562 L131.716862,226.136717" id="Stroke-389"></path>
            <path d="M119.563674,245.055939 L112.697789,259.420094" id="Stroke-391"></path>
            <path d="M171.866125,211.772562 L165.000239,226.136717" id="Stroke-393"></path>
            <path d="M157.606575,245.055939 L150.735935,259.420094" id="Stroke-395"></path>
            <path d="M209.909025,211.772562 L203.038385,226.136717" id="Stroke-397"></path>
            <path d="M190.885197,245.055939 L184.019312,259.420094" id="Stroke-399"></path>
        </g>
    </g>
</svg>