<?xml version="1.0" encoding="UTF-8"?>
<svg width="300px" height="300px" viewBox="0 0 300 300" version="1.1" xmlns="http://www.w3.org/2000/svg" xmlns:xlink="http://www.w3.org/1999/xlink">
    <!-- Generator: Sketch 40.3 (33839) - http://www.bohemiancoding.com/sketch -->
    <title>10n</title>
    <desc>Created with Sketch.</desc>
    <defs></defs>
    <g id="Page-1" stroke="none" stroke-width="1" fill="none" fill-rule="evenodd">
        <g id="10n" stroke="#FFFFFF" stroke-width="4">
            <path d="M222.713616,122.045331 L221.634283,122.045331 C217.982621,105.403642 202.467813,92.9033564 183.876669,92.9033564 C165.280771,92.9033564 149.765962,105.403642 146.1143,122.045331 L129.196835,122.045331 C109.578661,122.045331 93.678716,137.160739 93.678716,155.804185 C93.678716,174.447631 109.578661,189.558285 129.196835,189.558285 L222.713616,189.558285 C242.327035,189.558285 258.231734,174.447631 258.231734,155.804185 C258.231734,137.160739 242.327035,122.045331 222.713616,122.045331 L222.713616,122.045331 Z" id="Stroke-387"></path>
            <path d="M138.582747,211.772562 L131.716862,226.136717" id="Stroke-389"></path>
            <path d="M119.563674,245.055939 L112.697789,259.420094" id="Stroke-391"></path>
            <path d="M171.866125,211.772562 L165.000239,226.136717" id="Stroke-393"></path>
            <path d="M157.606575,245.055939 L150.735935,259.420094" id="Stroke-395"></path>
            <path d="M209.909025,211.772562 L203.038385,226.136717" id="Stroke-397"></path>
            <path d="M190.885197,245.055939 L184.019312,259.420094" id="Stroke-399"></path>
            <path d="M144.282024,121.140985 C145.788944,114.249067 149.8215,108.251147 155.396778,104.034723 C137.076148,96.9379978 122.648123,81.0410724 118.511417,60.4628438 C116.093185,48.4312444 117.528502,36.5231794 121.967894,26 C95.780687,36.3898923 79.9206002,64.1136101 85.6423389,92.5752833 C88.786366,108.218638 95.8929785,120.153989 108.117581,128.590087 C113.305551,123.395141 122.605812,121.140985 130.716491,121.140985 L144.282024,121.140985 Z" id="Stroke-339"></path>
        </g>
    </g>
</svg>