<?xml version="1.0" encoding="UTF-8"?>
<svg width="300px" height="300px" viewBox="0 0 300 300" version="1.1" xmlns="http://www.w3.org/2000/svg" xmlns:xlink="http://www.w3.org/1999/xlink">
    <!-- Generator: Sketch 40.3 (33839) - http://www.bohemiancoding.com/sketch -->
    <title>11n</title>
    <desc>Created with Sketch.</desc>
    <defs></defs>
    <g id="Page-1" stroke="none" stroke-width="1" fill="none" fill-rule="evenodd">
        <g id="11n" stroke="#FFFFFF" stroke-width="4">
            <path d="M161.665483,63.8557844 C154.408641,58.1913008 144.029284,54.6416683 132.501272,54.6416683 C112.082592,54.6416683 95.2757452,65.767444 93.0572249,80.069643 C90.4986698,79.3605459 87.807418,78.9541627 85.0249374,78.9541627 C68.3383474,78.9541627 54.8115937,92.5555582 54.8115937,109.333377 C54.8115937,124.863019 66.405954,137.651648 81.3550487,139.472079 L81.3550487,139.716738 L92.7918319,139.716738" id="Stroke-187"></path>
            <path d="M87.985729,124.568599 C87.985729,111.622392 101.893985,101.131072 119.053307,101.131072 C123.258128,101.131072 127.268052,101.769674 130.9255,102.910035 C128.84797,99.4350445 127.686875,95.6075786 127.686875,91.581068 C127.686875,75.7611522 145.464065,62.9352022 167.392169,62.9352022 C187.806702,62.9352022 204.605255,74.0609778 206.823775,88.3631768 C209.390624,87.6540797 212.073582,87.2435498 214.868503,87.2435498 C231.542653,87.2435498 245.069406,100.844945 245.069406,117.622764 C245.069406,133.156553 233.48334,145.936889 218.525951,147.765613 L218.525951,148.006125 L118.833528,148.006125 L118.833528,147.997832 C101.777876,147.91075 87.985729,137.460897 87.985729,124.568599 L87.985729,124.568599 Z" id="Stroke-189"></path>
            <polyline id="Stroke-191" points="188.159177 170.751142 166.7743 211.874629 201.080503 200.081224 176.510909 245.347332"></polyline>
            <polyline id="Stroke-193" points="109.370606 170.751142 87.985729 211.874629 122.291932 200.081224 97.7223377 245.347332"></polyline>
        </g>
    </g>
</svg>