<?xml version="1.0" encoding="UTF-8"?>
<svg width="300px" height="300px" viewBox="0 0 300 300" version="1.1" xmlns="http://www.w3.org/2000/svg" xmlns:xlink="http://www.w3.org/1999/xlink">
    <!-- Generator: Sketch 40.3 (33839) - http://www.bohemiancoding.com/sketch -->
    <title>13d</title>
    <desc>Created with Sketch.</desc>
    <defs></defs>
    <g id="Page-1" stroke="none" stroke-width="1" fill="none" fill-rule="evenodd">
        <g id="13d" stroke="#FFFFFF" stroke-width="4">
            <path d="M198.929087,187.706177 L214.926193,187.706177 C240.792348,187.706177 261.761719,166.576411 261.761719,140.502685 C261.761719,114.433677 240.792348,93.2944758 214.926193,93.2944758 L213.50622,93.2944758 C208.684916,70.0276737 188.225038,52.549267 163.703375,52.549267 C139.186431,52.549267 118.726552,70.0276737 113.909966,93.2944758 L91.5961024,93.2944758 C65.7299474,93.2944758 44.7558594,114.433677 44.7558594,140.502685 C44.7558594,153.183376 49.718689,164.689404 57.785646,173.171502" id="Stroke-489"></path>
            <path d="M101,168.284184 L101,223.148959" id="Stroke-497"></path>
            <path d="M164,180.224633 L164,235.089408" id="Stroke-497-Copy"></path>
            <path d="M146,125.114869 L146,179.979643" id="Stroke-497-Copy-2"></path>
            <path d="M124.483843,180.224633 L80.0188324,211.979253" id="Stroke-499"></path>
            <path d="M186.941576,191.246586 L142.476565,223.001206" id="Stroke-499-Copy"></path>
            <path d="M168.571654,136.136822 L124.106644,167.891441" id="Stroke-499-Copy-2"></path>
            <path d="M125.194506,210.946266 L80.0188324,180.224633" id="Stroke-501"></path>
            <path d="M187.652239,221.968219 L142.476565,191.246586" id="Stroke-501-Copy"></path>
            <path d="M169.282318,166.858455 L124.106644,136.136822" id="Stroke-501-Copy-2"></path>
        </g>
    </g>
</svg>