<?xml version="1.0" encoding="UTF-8"?>
<svg width="105px" height="105px" viewBox="0 0 105 105" version="1.1" xmlns="http://www.w3.org/2000/svg" xmlns:xlink="http://www.w3.org/1999/xlink">
    <!-- Generator: Sketch 40.3 (33839) - http://www.bohemiancoding.com/sketch -->
    <title>no</title>
    <desc>Created with Sketch.</desc>
    <defs></defs>
    <g id="Page-1" stroke="none" stroke-width="1" fill="none" fill-rule="evenodd">
        <g id="no" fill="#FFFFFF">
            <path d="M53,96.5165312 C28.4542,96.5165312 8.5556,76.602776 8.5556,52.0380812 C8.5556,27.4735865 28.4542,7.55983128 53,7.55983128 C77.546,7.55983128 97.4444,27.4735865 97.4444,52.0380812 C97.4444,76.602776 77.546,96.5165312 53,96.5165312 M53,2 C25.3858,2 3,24.4028496 3,52.0380812 C3,79.6733128 25.3858,102.076162 53,102.076162 C80.6142,102.076162 103,79.6733128 103,52.0380812 C103,24.4028496 80.6142,2 53,2 M78.6944,38.1387031 C74.8588,38.1387031 71.75,41.250071 71.75,45.0883922 C71.75,48.926313 74.8588,52.0380812 78.6944,52.0380812 C82.5296,52.0380812 85.639,48.926313 85.639,45.0883922 C85.639,41.250071 82.5296,38.1387031 78.6944,38.1387031 M52.9766,62.3002912 C44.2486,62.3002912 36.7752,67.6727799 33.675,75.2929792 L38.9002,77.1962276 C41.2202,71.7096521 46.6494,67.8599223 52.9766,67.8599223 C59.3042,67.8599223 64.7334,71.7096521 67.053,77.1962276 L72.2788,75.2929792 C69.1784,67.6727799 61.705,62.3002912 52.9766,62.3002912 M27.3056,38.1387031 C23.4702,38.1387031 20.3612,41.250071 20.3612,45.0883922 C20.3612,48.926313 23.4702,52.0380812 27.3056,52.0380812 C31.1408,52.0380812 34.25,48.926313 34.25,45.0883922 C34.25,41.250071 31.1408,38.1387031 27.3056,38.1387031" id="Fill-7"></path>
        </g>
    </g>
</svg>