<?xml version="1.0" encoding="UTF-8"?>
<svg width="105px" height="105px" viewBox="0 0 105 105" version="1.1" xmlns="http://www.w3.org/2000/svg" xmlns:xlink="http://www.w3.org/1999/xlink">
    <!-- Generator: Sketch 40.3 (33839) - http://www.bohemiancoding.com/sketch -->
    <title>yes</title>
    <desc>Created with Sketch.</desc>
    <defs></defs>
    <g id="Page-1" stroke="none" stroke-width="1" fill="none" fill-rule="evenodd">
        <g id="yes" fill="#FFFFFF">
            <path d="M53,97.4444 C28.4542,97.4444 8.5556,77.5458 8.5556,53 C8.5556,28.454 28.4542,8.5556 53,8.5556 C77.546,8.5556 97.4444,28.454 97.4444,53 C97.4444,77.5458 77.546,97.4444 53,97.4444 M53,3 C25.3856,3 3,25.3858 3,53 C3,80.6138 25.3856,103 53,103 C80.6144,103 103,80.6138 103,53 C103,25.3858 80.6144,3 53,3 M78.6944,39.111 C74.8588,39.111 71.75,42.2202 71.75,46.0556 C71.75,49.8906 74.8588,53 78.6944,53 C82.5296,53 85.639,49.8906 85.639,46.0556 C85.639,42.2202 82.5296,39.111 78.6944,39.111 M32.1434,66.3336 C32.1434,77.8394 41.4708,87.167 52.9766,87.167 C64.4828,87.167 73.81,77.8394 73.81,66.3336 C73.81,66.3772 64.4828,64.4692 52.9766,64.4692 C41.4708,64.4692 32.1434,66.3772 32.1434,66.3336 M34.25,46.0556 C34.25,42.2202 31.1408,39.111 27.3056,39.111 C23.4702,39.111 20.3612,42.2202 20.3612,46.0556 C20.3612,49.8906 23.4702,53 27.3056,53 C31.1408,53 34.25,49.8906 34.25,46.0556" id="Fill-1"></path>
        </g>
    </g>
</svg>